<svg width="40" height="41" viewBox="0 0 40 41" fill="none" xmlns="http://www.w3.org/2000/svg">
<path fill-rule="evenodd" clip-rule="evenodd" d="M6.58049 10.7673H33.4188C34.2888 10.7673 35.0005 11.479 35.0005 12.349V12.519C35.0005 13.389 34.2888 14.1007 33.4188 14.1007H6.58049C5.71049 14.1007 5.00049 13.389 5.00049 12.519V12.349C5.00049 11.479 5.71049 10.7673 6.58049 10.7673ZM33.4188 19.1007H6.58049C5.71049 19.1007 5.00049 19.8123 5.00049 20.6823V20.8523C5.00049 21.7223 5.71049 22.434 6.58049 22.434H33.4188C34.2888 22.434 35.0005 21.7223 35.0005 20.8523V20.6823C35.0005 19.8123 34.2888 19.1007 33.4188 19.1007ZM33.4188 27.434H6.58049C5.71049 27.434 5.00049 28.1457 5.00049 29.0157V29.1857C5.00049 30.0557 5.71049 30.7673 6.58049 30.7673H33.4188C34.2888 30.7673 35.0005 30.0557 35.0005 29.1857V29.0157C35.0005 28.1457 34.2888 27.434 33.4188 27.434Z" fill="white"/>
<mask id="mask0_857_932" style="mask-type:alpha" maskUnits="userSpaceOnUse" x="5" y="10" width="31" height="21">
<path fill-rule="evenodd" clip-rule="evenodd" d="M6.58049 10.7673H33.4188C34.2888 10.7673 35.0005 11.479 35.0005 12.349V12.519C35.0005 13.389 34.2888 14.1007 33.4188 14.1007H6.58049C5.71049 14.1007 5.00049 13.389 5.00049 12.519V12.349C5.00049 11.479 5.71049 10.7673 6.58049 10.7673ZM33.4188 19.1007H6.58049C5.71049 19.1007 5.00049 19.8123 5.00049 20.6823V20.8523C5.00049 21.7223 5.71049 22.434 6.58049 22.434H33.4188C34.2888 22.434 35.0005 21.7223 35.0005 20.8523V20.6823C35.0005 19.8123 34.2888 19.1007 33.4188 19.1007ZM33.4188 27.434H6.58049C5.71049 27.434 5.00049 28.1457 5.00049 29.0157V29.1857C5.00049 30.0557 5.71049 30.7673 6.58049 30.7673H33.4188C34.2888 30.7673 35.0005 30.0557 35.0005 29.1857V29.0157C35.0005 28.1457 34.2888 27.434 33.4188 27.434Z" fill="white"/>
</mask>
<g mask="url(#mask0_857_932)">
<rect y="0.767334" width="40" height="40" fill="white"/>
</g>
</svg>
