<svg width="24" height="24" viewBox="0 0 24 24" fill="none" xmlns="http://www.w3.org/2000/svg">
<g id="Icon/Outline/globe-2">
<path id="Mask" fill-rule="evenodd" clip-rule="evenodd" d="M16.8887 18.318C16.7167 17.885 16.4727 17.507 16.2587 17.184C16.1507 17.022 16.0397 16.857 15.9427 16.687C15.5537 16.011 15.6877 15.737 16.3187 14.68L16.4207 14.507C16.9317 13.646 16.9597 12.82 16.9857 12.092C16.9977 11.734 17.0097 11.397 17.0787 11.08C17.2397 10.348 18.7867 10.153 19.7457 10.038C19.9067 10.667 19.9997 11.322 19.9997 12C19.9997 14.569 18.7777 16.853 16.8887 18.318ZM4.96169 15.799C5.59769 15.961 6.28669 16.073 6.98769 16.073C8.06769 16.073 9.17069 15.809 10.1247 15.062C11.8407 13.72 11.8407 12.004 11.8407 10.624C11.8407 9.732 11.8407 8.963 12.2127 8.28C12.4127 7.914 12.8387 7.66 13.3317 7.365C13.6337 7.184 13.9467 6.998 14.2467 6.762C14.8897 6.259 15.3677 5.612 15.6637 4.896C17.0637 5.621 18.2237 6.744 18.9897 8.119C17.5617 8.317 15.5347 8.785 15.1257 10.652C15.0177 11.146 15.0007 11.611 14.9877 12.022C14.9667 12.605 14.9507 13.066 14.7007 13.488L14.6007 13.656C13.9537 14.739 13.2217 15.967 14.2087 17.684C14.3277 17.892 14.4607 18.092 14.5917 18.291C14.9357 18.807 15.1047 19.092 15.1057 19.372C14.1507 19.776 13.1007 20 11.9997 20C8.9627 20 6.31669 18.298 4.96169 15.799ZM11.9997 4C12.6157 4 13.2107 4.076 13.7867 4.208C13.6177 4.58 13.3567 4.919 13.0127 5.188C12.7947 5.36 12.5497 5.503 12.3067 5.648C11.6557 6.036 10.9187 6.476 10.4567 7.322C9.84069 8.452 9.84069 9.606 9.84069 10.624C9.84069 11.979 9.79669 12.78 8.89269 13.487C7.52369 14.56 5.42869 13.961 4.13269 13.416C4.05069 12.955 3.99969 12.483 3.99969 12C3.99969 7.589 7.5887 4 11.9997 4ZM11.9997 2C6.48569 2 1.99969 6.486 1.99969 12C1.99969 17.513 6.48569 22 11.9997 22C17.5137 22 21.9997 17.513 21.9997 12C21.9997 6.486 17.5137 2 11.9997 2Z" fill="#231F20"/>
<mask id="mask0_282_911" style="mask-type:alpha" maskUnits="userSpaceOnUse" x="1" y="2" width="21" height="20">
<path id="Mask_2" fill-rule="evenodd" clip-rule="evenodd" d="M16.8887 18.318C16.7167 17.885 16.4727 17.507 16.2587 17.184C16.1507 17.022 16.0397 16.857 15.9427 16.687C15.5537 16.011 15.6877 15.737 16.3187 14.68L16.4207 14.507C16.9317 13.646 16.9597 12.82 16.9857 12.092C16.9977 11.734 17.0097 11.397 17.0787 11.08C17.2397 10.348 18.7867 10.153 19.7457 10.038C19.9067 10.667 19.9997 11.322 19.9997 12C19.9997 14.569 18.7777 16.853 16.8887 18.318ZM4.96169 15.799C5.59769 15.961 6.28669 16.073 6.98769 16.073C8.06769 16.073 9.17069 15.809 10.1247 15.062C11.8407 13.72 11.8407 12.004 11.8407 10.624C11.8407 9.732 11.8407 8.963 12.2127 8.28C12.4127 7.914 12.8387 7.66 13.3317 7.365C13.6337 7.184 13.9467 6.998 14.2467 6.762C14.8897 6.259 15.3677 5.612 15.6637 4.896C17.0637 5.621 18.2237 6.744 18.9897 8.119C17.5617 8.317 15.5347 8.785 15.1257 10.652C15.0177 11.146 15.0007 11.611 14.9877 12.022C14.9667 12.605 14.9507 13.066 14.7007 13.488L14.6007 13.656C13.9537 14.739 13.2217 15.967 14.2087 17.684C14.3277 17.892 14.4607 18.092 14.5917 18.291C14.9357 18.807 15.1047 19.092 15.1057 19.372C14.1507 19.776 13.1007 20 11.9997 20C8.9627 20 6.31669 18.298 4.96169 15.799ZM11.9997 4C12.6157 4 13.2107 4.076 13.7867 4.208C13.6177 4.58 13.3567 4.919 13.0127 5.188C12.7947 5.36 12.5497 5.503 12.3067 5.648C11.6557 6.036 10.9187 6.476 10.4567 7.322C9.84069 8.452 9.84069 9.606 9.84069 10.624C9.84069 11.979 9.79669 12.78 8.89269 13.487C7.52369 14.56 5.42869 13.961 4.13269 13.416C4.05069 12.955 3.99969 12.483 3.99969 12C3.99969 7.589 7.5887 4 11.9997 4ZM11.9997 2C6.48569 2 1.99969 6.486 1.99969 12C1.99969 17.513 6.48569 22 11.9997 22C17.5137 22 21.9997 17.513 21.9997 12C21.9997 6.486 17.5137 2 11.9997 2Z" fill="white"/>
</mask>
<g mask="url(#mask0_282_911)">
<g id="&#240;&#159;&#142;&#168; Color">
<rect id="Base" width="24" height="24" fill="#0D1C2E"/>
</g>
</g>
</g>
</svg>
