<svg width="24" height="24" viewBox="0 0 24 24" fill="none" xmlns="http://www.w3.org/2000/svg">
<g id="Icon/Outline/chevron-down">
<path id="Mask" fill-rule="evenodd" clip-rule="evenodd" d="M12 15.5002C11.744 15.5002 11.488 15.4023 11.293 15.2073L7.293 11.2072C6.902 10.8162 6.902 10.1842 7.293 9.79325C7.684 9.40225 8.316 9.40225 8.707 9.79325L12.012 13.0982L15.305 9.91825C15.704 9.53525 16.335 9.54625 16.719 9.94325C17.103 10.3403 17.092 10.9742 16.695 11.3572L12.695 15.2193C12.5 15.4073 12.25 15.5002 12 15.5002Z" fill="#231F20"/>
<mask id="mask0_282_1070" style="mask-type:alpha" maskUnits="userSpaceOnUse" x="6" y="9" width="11" height="7">
<path id="Mask_2" fill-rule="evenodd" clip-rule="evenodd" d="M12 15.5002C11.744 15.5002 11.488 15.4023 11.293 15.2073L7.293 11.2072C6.902 10.8162 6.902 10.1842 7.293 9.79325C7.684 9.40225 8.316 9.40225 8.707 9.79325L12.012 13.0982L15.305 9.91825C15.704 9.53525 16.335 9.54625 16.719 9.94325C17.103 10.3403 17.092 10.9742 16.695 11.3572L12.695 15.2193C12.5 15.4073 12.25 15.5002 12 15.5002Z" fill="white"/>
</mask>
<g mask="url(#mask0_282_1070)">
<g id="&#240;&#159;&#142;&#168; Color">
<rect id="Base" width="24" height="24" fill="#0D1C2E"/>
</g>
</g>
</g>
</svg>
