<svg width="24" height="24" viewBox="0 0 24 24" fill="none" xmlns="http://www.w3.org/2000/svg">
<g id="Icon/Outline/home">
<path id="Mask" fill-rule="evenodd" clip-rule="evenodd" d="M18.9902 20.0004H16.0002V13.0004C16.0002 12.4474 15.5522 12.0004 15.0002 12.0004H9.0002C8.4472 12.0004 8.0002 12.4474 8.0002 13.0004V20.0004H5.0002L5.0062 11.5834L11.9982 4.43245L19.0002 11.6244L18.9902 20.0004ZM10.0002 20.0004H14.0002V14.0004H10.0002V20.0004ZM20.4242 10.1854L12.7152 2.30145C12.3382 1.91645 11.6622 1.91645 11.2852 2.30145L3.5752 10.1864C3.2102 10.5614 3.0002 11.0854 3.0002 11.6244V20.0004C3.0002 21.1034 3.8472 22.0004 4.8882 22.0004H9.0002H15.0002H19.1112C20.1522 22.0004 21.0002 21.1034 21.0002 20.0004V11.6244C21.0002 11.0854 20.7902 10.5614 20.4242 10.1854Z" fill="#231F20"/>
<mask id="mask0_282_1080" style="mask-type:alpha" maskUnits="userSpaceOnUse" x="3" y="2" width="19" height="20">
<path id="Mask_2" fill-rule="evenodd" clip-rule="evenodd" d="M18.9902 20.0004H16.0002V13.0004C16.0002 12.4474 15.5522 12.0004 15.0002 12.0004H9.0002C8.4472 12.0004 8.0002 12.4474 8.0002 13.0004V20.0004H5.0002L5.0062 11.5834L11.9982 4.43245L19.0002 11.6244L18.9902 20.0004ZM10.0002 20.0004H14.0002V14.0004H10.0002V20.0004ZM20.4242 10.1854L12.7152 2.30145C12.3382 1.91645 11.6622 1.91645 11.2852 2.30145L3.5752 10.1864C3.2102 10.5614 3.0002 11.0854 3.0002 11.6244V20.0004C3.0002 21.1034 3.8472 22.0004 4.8882 22.0004H9.0002H15.0002H19.1112C20.1522 22.0004 21.0002 21.1034 21.0002 20.0004V11.6244C21.0002 11.0854 20.7902 10.5614 20.4242 10.1854Z" fill="white"/>
</mask>
<g mask="url(#mask0_282_1080)">
<g id="&#240;&#159;&#142;&#168; Color">
<rect id="Base" width="24" height="24" fill="#0D1C2E"/>
</g>
</g>
</g>
</svg>
