<svg width="340" height="177" viewBox="0 0 340 177" fill="none" xmlns="http://www.w3.org/2000/svg">
<path d="M339.395 114.772C339.169 114.319 338.49 114.319 337.811 114.319C336.452 114.772 335.773 116.583 335.094 118.167L334.868 118.394C333.509 121.563 332.378 124.279 331.472 127.222C331.246 127.901 331.019 128.354 331.019 129.033C330.34 131.297 329.661 133.334 328.529 134.693C328.529 133.561 327.85 132.429 326.718 131.976C325.586 131.297 324.228 131.523 323.096 132.202C321.059 133.334 319.927 135.372 318.569 137.409C318.342 137.862 318.116 138.315 317.663 138.767C317.663 138.767 310.419 148.049 306.797 149.633C306.344 148.954 306.118 148.049 306.118 146.691C306.118 141.258 307.703 136.504 309.287 132.202C311.325 126.317 313.136 122.921 314.267 120.884C315.173 119.299 315.626 118.394 315.399 117.714C315.399 117.488 315.173 117.262 314.72 117.035C313.362 116.356 312.23 118.394 311.777 119.299C309.74 122.695 307.929 126.996 306.797 129.939V130.165C305.212 134.466 303.175 140.805 303.175 146.917C303.175 148.275 303.401 151.444 305.665 152.35C308.155 153.482 311.098 150.312 313.362 147.596C314.041 146.917 314.72 146.011 315.399 145.559C314.947 147.822 315.626 150.086 317.663 150.539C317.663 150.539 317.663 150.539 317.889 150.539C318.795 150.539 320.832 150.765 325.36 145.106C325.586 144.653 326.039 144.2 326.265 143.748C326.492 143.295 326.718 143.068 326.944 142.842C327.171 142.842 327.624 143.068 327.85 142.842C327.85 143.068 327.85 143.521 327.624 143.974C327.171 147.37 326.492 151.671 329.208 152.803C330.34 152.803 331.019 152.123 331.019 150.992C331.019 150.539 330.793 150.313 330.566 150.086C330.34 149.86 330.34 149.86 330.114 149.633C330.114 144.653 331.019 140.352 332.151 136.277C332.378 135.145 332.604 134.24 332.83 133.108C334.189 130.618 335.547 127.901 336.679 125.185L337.131 124.506V124.279C337.584 122.921 338.263 121.336 338.942 119.752V119.525C339.395 118.394 340.301 115.903 339.395 114.772ZM325.586 139.446L325.133 139.899C323.322 142.616 321.285 145.559 318.342 147.37C318.116 144.653 319.248 142.163 320.38 140.126C321.738 137.409 323.323 135.598 324.907 134.693C325.36 135.372 325.36 136.73 325.36 138.088C325.586 138.541 325.586 138.994 325.586 139.446ZM264.691 129.486C266.05 131.297 263.107 141.484 263.107 141.484C261.748 145.559 259.711 150.765 256.995 151.897C256.089 152.35 254.957 152.124 254.052 151.444C251.788 148.728 251.788 143.974 251.788 138.994C250.203 140.805 248.845 142.842 247.26 144.879C244.318 149.181 241.827 152.803 239.111 152.803C239.111 152.803 239.111 152.803 238.885 152.803C238.658 152.803 237.753 152.35 237.526 150.992C237.526 149.181 237.753 145.332 243.412 133.334C243.638 133.108 243.638 132.655 243.865 132.202C244.544 130.391 245.449 128.354 246.808 128.128C247.26 128.128 247.713 128.128 248.166 128.58C248.392 128.807 248.619 129.033 248.619 129.486C248.619 130.391 248.166 131.071 247.713 131.75C247.26 132.202 247.034 132.882 246.808 133.334C246.808 133.561 246.808 133.561 246.808 133.787C247.034 134.24 247.034 134.919 245.676 135.598L245.449 136.051C243.638 140.126 241.827 144.2 240.696 148.954C242.733 146.691 244.77 143.974 246.581 141.257C247.487 140.126 248.392 138.767 249.298 137.635C249.524 137.409 249.524 137.409 249.751 137.183C250.656 136.051 251.562 134.693 253.146 134.466C254.052 134.466 254.731 135.372 254.957 136.956C255.184 138.088 255.184 139.673 255.184 141.257C255.184 144.427 255.184 147.822 256.315 149.407C257.9 148.049 258.806 145.785 259.485 143.748C259.711 143.068 259.937 142.389 260.164 141.937L260.617 140.578C261.296 138.088 262.201 135.372 262.654 132.655C262.201 132.429 261.975 131.75 262.201 131.297C262.428 130.391 263.107 129.712 263.786 129.486C264.012 128.807 264.465 129.033 264.691 129.486ZM301.138 131.071C300.006 130.391 298.648 131.071 297.968 131.297C294.573 133.108 292.083 137.183 290.045 140.352C289.819 140.805 289.593 141.031 289.366 141.484C289.593 140.578 289.819 139.673 290.045 138.994C290.272 138.315 290.498 137.409 290.724 136.504C290.724 136.051 290.951 135.598 291.177 135.145C291.63 133.787 292.309 132.202 291.404 131.297C290.724 130.391 289.819 131.071 289.14 131.523C288.913 131.75 288.687 131.75 288.461 131.976C285.744 133.561 282.122 134.466 277.142 134.919C276.463 133.108 275.784 131.976 274.652 131.523C273.294 131.071 271.935 131.75 270.577 133.561C268.313 136.504 265.823 141.71 265.823 146.011C265.823 148.501 266.955 150.086 268.766 150.313C270.351 150.313 272.388 149.181 273.973 147.143C275.784 144.879 277.142 141.484 277.595 137.862C281.896 137.409 285.065 136.277 288.234 135.372C287.555 137.635 286.876 139.899 286.197 142.616C286.197 142.842 286.197 142.842 285.971 143.068C285.518 144.879 284.612 148.502 285.518 150.086C285.744 150.539 286.197 150.765 286.423 150.765C286.65 150.765 286.65 150.765 286.876 150.765C288.234 150.765 288.913 149.181 290.045 146.691C290.724 145.106 291.404 143.295 292.762 141.257C292.988 141.031 293.215 140.578 293.441 140.352C295.252 137.635 296.837 134.693 300.232 133.334C300.459 133.561 300.685 134.013 300.911 134.24C301.138 134.693 301.364 135.372 302.27 135.372C302.949 135.372 303.175 134.919 303.401 134.693C303.401 133.561 302.043 131.297 301.138 131.071ZM274.652 138.088C273.746 143.068 271.935 146.011 268.992 147.37C268.54 143.748 269.898 140.805 271.256 138.088C271.483 137.635 271.709 137.183 271.935 136.956C272.841 137.635 273.746 137.862 274.652 138.088ZM220.095 133.108C217.379 133.334 215.794 134.919 213.983 136.277C213.531 136.73 213.078 137.183 212.625 137.409C212.625 137.183 212.851 136.73 213.078 136.504C213.531 135.372 213.983 134.24 213.531 133.561C213.304 133.334 213.078 132.882 212.625 132.882C212.399 132.655 211.946 132.655 211.72 132.882C210.814 133.334 210.361 134.693 209.909 136.051C209.682 136.504 209.456 137.183 209.456 137.409C207.645 138.541 205.834 139.899 204.249 141.257C204.023 141.484 203.57 141.71 203.344 141.937C203.117 142.163 202.891 142.389 202.665 142.616C200.854 143.974 199.269 145.332 197.005 146.238C197.005 143.521 197.684 141.257 198.137 139.22C198.816 136.956 199.269 135.372 198.363 134.466C197.911 134.24 197.684 134.013 197.232 134.013C195.873 134.24 194.741 136.277 194.289 136.956V137.183C192.251 140.126 189.988 143.521 187.497 146.238L187.271 146.464C186.818 146.917 186.592 147.37 185.913 147.37C186.139 143.521 187.497 140.126 188.629 137.183C189.761 134.24 190.667 131.976 189.308 131.297C188.403 130.844 186.818 131.75 184.781 132.882C182.517 134.24 179.801 135.824 177.311 135.824C176.631 134.466 175.726 133.334 174.141 133.108C171.878 132.655 170.293 134.466 168.935 136.051C168.482 136.504 168.029 136.956 167.803 137.183C167.35 137.635 166.897 137.862 166.445 138.315C165.313 139.22 163.954 140.352 162.823 141.257C161.238 142.389 159.427 143.748 157.842 145.106C156.258 146.464 154.673 147.822 153.088 148.954C153.315 148.502 153.541 148.275 153.541 147.822C156.484 141.258 159.653 134.466 157.163 132.882C156.031 132.202 154.22 133.334 151.957 136.277C151.051 137.183 150.146 138.315 149.466 139.22C146.75 142.389 144.033 145.559 140.185 147.596C140.411 144.653 141.317 142.163 142.449 139.899C142.902 138.994 143.128 138.315 143.581 137.409C144.713 137.409 144.713 136.73 144.713 136.051C144.713 135.824 144.713 135.598 144.713 135.145C144.713 134.919 144.939 134.693 144.939 134.466C145.165 134.013 145.392 133.787 145.165 133.334C144.939 132.655 144.486 132.202 143.581 132.202C143.128 132.202 142.675 132.429 142.449 132.882C142.222 133.108 137.016 142.389 137.016 147.37C137.016 149.181 137.921 150.312 139.28 150.765C141.317 150.992 142.675 149.86 143.807 148.954L144.033 148.728C147.655 146.011 150.825 142.616 153.768 138.994C153.315 140.126 152.183 143.748 148.108 151.671C147.429 152.124 146.976 152.576 146.297 153.029C141.317 156.651 136.11 160.499 132.262 165.48C130.677 167.517 127.508 172.497 129.998 175.214C130.451 175.893 131.13 176.119 132.036 176.119C132.262 176.119 132.262 176.119 132.488 176.119C136.337 175.667 142.222 168.423 149.693 155.293C154.447 151.218 159.88 146.464 165.313 142.389C164.86 143.748 163.954 146.691 164.86 148.954C165.313 150.086 165.992 150.765 167.124 151.218C169.84 151.444 171.425 149.86 172.783 148.728C175.047 146.464 176.858 142.842 177.311 138.767C180.253 138.315 182.744 136.956 184.781 135.824C185.234 135.598 185.686 135.372 186.139 135.145C185.913 135.598 185.686 136.277 185.46 136.956C184.102 139.899 182.517 143.748 182.744 147.596C182.744 148.501 183.196 149.633 183.875 150.313C184.555 150.765 185.234 150.765 186.139 150.539C188.403 150.086 191.346 146.011 193.157 143.521C193.61 143.069 193.836 142.616 194.062 142.163C193.61 144.427 193.383 147.37 194.741 148.728C196.779 150.312 198.816 148.728 200.401 147.596L200.627 147.37C201.985 146.238 203.344 145.106 204.928 143.974C206.06 142.842 207.192 141.937 208.324 141.257C207.871 143.069 207.418 144.427 206.966 145.559C206.06 147.822 205.607 149.181 206.966 149.86C207.192 150.086 207.418 150.086 207.871 150.086C208.777 150.086 209.003 149.407 209.456 148.501C209.909 147.143 210.814 145.106 213.531 141.71C213.757 141.484 213.983 141.257 214.21 141.031C215.115 140.126 216.021 139.22 217.153 138.315C217.379 138.315 217.379 138.088 217.605 137.862C218.737 136.956 220.095 135.598 221.68 135.824C221.906 135.824 222.133 136.051 222.359 136.277C222.812 136.73 223.491 137.183 224.17 136.504C224.397 136.051 224.397 135.598 224.17 135.145C223.265 133.787 221.68 132.882 220.095 133.108ZM173.915 138.994C173.462 142.163 172.104 145.106 170.067 146.917C169.161 147.822 168.256 148.275 167.35 148.501C166.445 144.2 170.293 139.22 171.425 137.635C172.104 138.088 172.783 138.767 173.915 138.994ZM144.713 157.783C138.374 168.423 134.299 172.045 132.036 173.176C132.488 170.007 134.978 164.8 144.713 157.783ZM122.754 142.389C122.301 142.163 121.396 142.389 120.943 142.616C117.548 144.2 113.926 145.559 113.699 145.785C113.699 145.785 113.473 145.785 113.02 146.011C106.002 148.501 101.928 149.181 101.249 147.822C100.569 146.691 101.022 144.879 101.475 143.974C104.644 143.521 107.361 142.163 109.398 141.257C113.926 138.767 115.057 136.73 115.284 135.372C115.51 134.466 115.057 133.561 114.378 132.882C113.473 131.976 112.341 131.75 110.983 131.75C108.719 131.976 105.097 133.334 100.343 139.673C99.2112 139.673 98.3057 140.352 98.0793 141.484C98.0793 142.163 98.3057 142.389 98.532 142.842C98.532 143.068 98.7584 143.068 98.7584 143.295C97.6265 145.332 97.8529 149.181 99.4375 150.539C100.569 151.444 101.701 151.897 103.06 151.897C103.286 151.897 103.512 151.897 103.739 151.897C106.002 151.671 108.266 150.765 110.756 150.086C111.209 149.86 111.435 149.86 111.888 149.633C117.548 147.596 119.585 146.464 120.717 145.785C120.943 145.559 121.17 145.559 121.396 145.332C121.622 145.332 121.622 145.106 121.849 145.106C122.528 144.879 123.433 144.427 123.433 143.521C123.207 142.616 122.981 142.389 122.754 142.389ZM103.512 140.126C104.871 138.088 107.813 134.013 111.209 134.013C111.888 134.013 112.341 134.013 112.567 134.466C112.115 135.824 110.983 136.504 109.851 137.183C109.398 137.409 108.945 137.862 108.493 138.088C107.134 138.767 105.55 139.446 103.512 140.126ZM51.446 147.596C50.7669 151.444 50.0878 155.746 50.7669 159.141C50.7669 159.141 50.7669 159.141 50.9933 159.141C51.2197 158.915 51.8988 158.688 52.3515 159.368C52.8043 159.82 52.8043 160.273 52.3515 160.952C52.1252 161.631 51.2197 162.084 50.3142 161.858C46.9185 160.952 47.3713 155.972 47.5977 152.576C48.5032 142.389 51.2197 133.334 53.7098 124.732C53.9362 124.279 53.9362 123.6 54.1625 123.147C50.0878 127.901 46.013 133.108 42.1646 138.315C39.2218 142.163 36.2789 146.011 33.1096 149.86C32.8833 150.086 32.6569 150.539 32.4305 150.765C31.525 151.897 30.3931 153.255 29.4876 154.161C28.1294 155.293 25.8656 157.557 23.8283 156.877C23.1491 156.651 22.6964 156.198 22.47 155.746C20.4326 152.124 23.1491 142.163 24.7338 136.73C24.9601 136.051 25.1865 135.372 25.1865 134.919C26.092 131.071 27.4503 127.222 28.5821 123.6C29.0349 121.789 29.714 119.978 30.1668 118.167C29.714 118.62 29.4876 119.073 29.0349 119.752C28.8085 119.978 28.8085 120.205 28.5821 120.431C20.659 131.297 13.1886 143.068 6.17101 156.425C5.94464 157.104 5.49189 157.783 5.26551 158.462C5.03914 158.915 5.03914 159.141 4.81276 159.594C4.58639 160.047 4.36001 160.273 4.13364 160.726C3.68089 161.405 3.45451 162.084 3.22814 162.537C3.22814 162.763 3.22814 162.99 3.22814 163.216C3.22814 163.442 3.22814 163.895 3.00176 164.121C2.77539 164.801 2.09626 165.253 1.41714 165.253C0.738012 165.253 0.285262 165.027 0.0588869 164.348C-0.167488 162.99 0.285262 161.858 0.964387 160.952C0.964387 160.726 1.19076 160.499 1.19076 160.273C4.81276 152.124 9.56664 144.427 14.0941 136.956V136.73C19.3008 128.128 24.0546 121.11 29.0349 115.224C29.9404 114.319 30.8459 113.187 31.7514 112.734C31.9778 112.508 32.6569 112.508 33.1096 112.734C33.5624 112.961 33.7888 113.187 34.0151 113.866C34.4679 115.224 34.0151 116.583 33.7888 117.714C33.7888 117.941 33.5624 118.167 33.5624 118.394C32.6569 121.563 31.7514 124.732 30.8459 127.901C29.2613 132.882 27.903 137.862 26.5448 143.295C26.5448 143.748 26.3184 144.2 26.3184 144.653C25.6393 147.596 24.7338 150.765 25.1865 154.161C26.5448 153.708 27.4503 152.576 28.5821 151.444C29.0349 150.992 29.2613 150.765 29.714 150.313L30.1668 149.86C31.2986 148.501 32.6569 147.143 33.7888 145.785C37.4108 141.484 41.0328 136.956 44.6548 132.429C46.2394 130.618 47.824 128.58 49.1823 126.543C49.635 126.09 49.8614 125.638 50.3142 125.185C51.2197 124.053 52.1252 122.921 53.0307 121.563C53.4834 121.11 53.9362 120.431 54.6153 119.752C54.8417 119.525 54.8417 119.299 55.068 119.073L55.2944 118.846C55.9735 118.167 56.6527 117.262 57.5582 117.262C58.0109 117.262 58.4637 117.488 58.69 117.714C59.3692 118.846 58.9164 121.11 58.69 122.016L58.0109 124.053C55.2944 131.523 53.0307 139.22 51.446 147.596ZM101.928 128.807C101.928 128.58 101.701 128.354 101.475 128.128C101.022 127.901 100.569 127.901 100.117 128.128C98.3057 129.033 92.6463 135.598 89.477 139.22C88.1188 140.578 86.7605 142.389 85.4023 143.974C83.5913 146.238 81.5539 148.728 79.2902 150.539C79.7429 146.69 80.8748 143.295 82.233 139.899C82.6858 138.767 83.1385 137.409 83.5913 136.051C83.5913 135.824 83.5913 135.824 83.8177 135.598C84.2704 134.466 84.7232 132.882 84.2704 131.523C84.044 131.071 83.8177 130.844 83.3649 130.618C82.4594 130.165 80.8748 130.844 80.422 131.071H80.1957C77.0264 132.429 73.8572 133.787 70.0088 134.693C69.556 134.24 69.1033 133.787 68.6505 133.334C68.6505 132.202 68.1978 131.75 67.745 131.523C66.3868 131.071 64.3494 131.75 63.6703 132.655C62.312 134.24 60.7274 136.277 59.5955 138.767C58.69 140.578 56.6527 145.559 58.0109 148.501C58.4637 149.633 59.1428 150.312 60.2747 150.539C61.8593 150.992 63.8967 150.086 65.934 148.501C68.6505 146.011 71.367 141.484 70.9143 136.956C73.4044 136.504 75.6682 135.598 77.9319 134.693C79.0638 134.24 80.1957 133.787 81.3275 133.334C80.8748 134.466 80.422 135.824 79.9693 137.183C79.5165 138.541 79.0638 140.126 78.3847 141.71C78.1583 142.163 77.9319 142.842 77.9319 143.295C77.0264 145.785 76.1209 148.502 76.3473 151.218C76.3473 152.35 77.0264 153.255 77.7055 153.708C78.1583 153.935 78.3847 153.935 78.8374 153.935C80.422 153.935 82.0067 152.576 82.6858 151.897C83.8177 150.992 85.855 148.501 88.3452 145.332C90.6089 142.389 93.5518 138.994 96.721 135.598C98.7584 133.108 100.117 131.75 101.022 131.071C101.701 129.712 101.928 129.486 101.928 128.807ZM61.1802 147.596C60.9538 147.596 60.9538 147.37 60.9538 147.143C60.2747 143.295 62.9912 138.994 64.123 136.956C64.3494 136.504 64.5758 136.277 64.5758 136.277C65.4813 137.183 66.8395 137.183 68.1978 137.183C68.1978 139.899 66.8395 141.937 65.7077 143.521C64.123 146.238 61.8593 147.822 61.1802 147.596Z" fill="white"/>
<path d="M191.799 3.16925C185.686 1.13188 177.99 0 169.84 0C161.691 0 153.994 1.13188 147.882 3.16925C131.583 8.37588 120.49 19.2419 120.49 31.6925C120.49 49.3498 142.675 63.6114 169.84 63.6114C197.232 63.6114 219.19 49.3498 219.19 31.6925C219.19 19.2419 208.098 8.37588 191.799 3.16925ZM169.84 50.0289C165.765 50.0289 162.37 42.1058 162.143 31.9189C164.634 32.1453 167.124 32.3716 169.84 32.3716C172.33 32.3716 175.047 32.1453 177.537 31.9189C177.311 41.8794 173.915 50.0289 169.84 50.0289ZM162.823 23.9958C163.954 16.9781 166.671 11.9979 169.84 11.9979C173.009 11.9979 175.726 16.9781 176.858 23.9958C174.594 24.2221 172.33 24.2221 169.84 24.2221C167.35 24.4485 165.086 24.2221 162.823 23.9958ZM181.159 23.543C179.574 12.4506 175.047 4.5275 169.84 4.5275C164.634 4.5275 160.106 12.4506 158.521 23.543C148.561 21.9584 141.543 18.3364 141.543 14.2616C141.543 8.60225 154.22 4.07475 170.067 4.07475C185.686 4.07475 198.59 8.60225 198.59 14.2616C198.363 18.3364 191.346 21.9584 181.159 23.543ZM127.508 30.5606C127.508 25.1276 129.545 20.1474 133.167 15.6199C133.167 15.8463 133.167 16.299 133.167 16.5254C133.167 23.3166 143.354 29.2024 157.616 31.2398C157.616 31.6925 157.616 32.3716 157.616 32.8244C157.616 45.5014 161.238 56.141 165.992 59.9894C144.486 58.6312 127.508 45.9541 127.508 30.5606ZM173.462 59.9894C178.216 56.3674 181.838 45.5014 181.838 32.8244C181.838 32.3716 181.838 31.6925 181.838 31.2398C196.1 29.2024 206.287 23.3166 206.287 16.5254C206.287 16.299 206.287 15.8463 206.287 15.6199C209.909 19.921 211.946 25.1276 211.946 30.5606C211.946 45.9541 195.194 58.6312 173.462 59.9894Z" fill="white"/>
<path d="M122.075 73.3457H102.833V77.6468H110.077V95.7568H115.057V77.6468H122.075V73.3457Z" fill="white"/>
<path d="M134.978 72.6665C128.414 72.6665 123.207 77.8731 123.207 84.438C123.207 91.0029 128.414 96.2095 134.978 96.2095C141.543 96.2095 146.75 91.0029 146.75 84.438C146.976 78.0995 141.543 72.6665 134.978 72.6665ZM140.864 88.06C140.185 90.0974 138.374 91.4556 136.337 91.9084C135.884 91.9084 135.658 91.9084 135.205 91.9084C134.752 91.9084 134.526 91.9084 134.073 91.9084C132.036 91.4556 130.225 90.0974 129.545 88.06C129.093 86.9281 128.866 85.7963 128.866 84.438C128.866 83.0798 129.093 81.9479 129.545 80.816C130.225 78.7786 132.036 77.4204 134.073 76.9676C134.526 76.9676 134.752 76.9676 135.205 76.9676C135.658 76.9676 135.884 76.9676 136.337 76.9676C138.374 77.4204 140.185 78.7786 140.864 80.816C141.317 81.9479 141.543 83.0798 141.543 84.438C141.543 85.7963 141.317 86.9281 140.864 88.06Z" fill="white"/>
<path d="M146.976 73.3457H152.862L158.295 83.0798L163.954 73.3457H169.84L161.012 87.381V95.7568H155.805V87.381L146.976 73.3457Z" fill="white"/>
<path d="M169.84 84.438C169.84 77.8731 175.047 72.6665 181.612 72.6665C188.177 72.6665 193.383 77.8731 193.383 84.438C193.383 91.0029 188.177 96.2095 181.612 96.2095C175.273 96.4359 169.84 91.0029 169.84 84.438ZM181.838 91.9084C182.291 91.9084 182.517 91.9084 182.97 91.9084C185.007 91.4556 186.818 90.0974 187.497 88.06C187.95 86.9281 188.177 85.7963 188.177 84.438C188.177 83.0798 187.95 81.9479 187.497 80.816C186.818 78.7786 185.007 77.4204 182.97 76.9676C182.517 76.9676 182.291 76.9676 181.838 76.9676C181.385 76.9676 181.159 76.9676 180.706 76.9676C178.669 77.4204 176.858 78.7786 176.179 80.816C175.726 81.9479 175.5 83.0798 175.5 84.438C175.5 85.7963 175.726 86.9281 176.179 88.06C176.858 90.0974 178.669 91.4556 180.706 91.9084C180.933 91.9084 181.385 91.9084 181.838 91.9084Z" fill="white"/>
<path d="M229.377 90.7766H219.869L218.058 95.7568H212.399L221.454 73.3457H227.792L236.847 95.7568H231.188L229.377 90.7766ZM227.792 86.9282L224.397 78.0996L221.001 86.9282H227.792Z" fill="white"/>
<path d="M213.757 73.3457H194.741V77.6468H201.759V95.7568H206.739V77.6468H213.757V73.3457Z" fill="white"/>
</svg>
