<svg width="199" height="103" viewBox="0 0 199 103" fill="none" xmlns="http://www.w3.org/2000/svg">
<path d="M198.488 67.1221C198.356 66.8573 197.959 66.8573 197.562 66.8573C196.767 67.1221 196.37 68.1812 195.973 69.108L195.84 69.2404C195.046 71.0938 194.384 72.6825 193.855 74.4036C193.722 74.8008 193.59 75.0656 193.59 75.4627C193.193 76.7866 192.795 77.9782 192.133 78.7725C192.133 78.1105 191.736 77.4486 191.074 77.1838C190.412 76.7866 189.618 76.919 188.956 77.3162C187.765 77.9782 187.103 79.1697 186.308 80.3612C186.176 80.626 186.044 80.8907 185.779 81.1555C185.779 81.1555 181.542 86.5836 179.424 87.5103C179.159 87.1131 179.027 86.5836 179.027 85.7892C179.027 82.6118 179.954 79.8316 180.88 77.3162C182.072 73.874 183.131 71.8882 183.793 70.6967C184.322 69.7699 184.587 69.2404 184.455 68.8432C184.455 68.7108 184.322 68.5784 184.058 68.446C183.263 68.0488 182.601 69.2404 182.337 69.7699C181.145 71.7558 180.086 74.2712 179.424 75.9923V76.1247C178.497 78.6401 177.306 82.3471 177.306 85.9216C177.306 86.7159 177.438 88.5694 178.762 89.099C180.218 89.7609 181.939 87.9075 183.263 86.3188C183.66 85.9216 184.058 85.392 184.455 85.1273C184.19 86.4512 184.587 87.7751 185.779 88.0399C185.779 88.0399 185.779 88.0399 185.911 88.0399C186.441 88.0399 187.632 88.1722 190.28 84.8625C190.412 84.5977 190.677 84.3329 190.81 84.0681C190.942 83.8033 191.074 83.671 191.207 83.5386C191.339 83.5386 191.604 83.671 191.736 83.5386C191.736 83.671 191.736 83.9357 191.604 84.2005C191.339 86.1864 190.942 88.7018 192.531 89.3638C193.193 89.3638 193.59 88.9666 193.59 88.3046C193.59 88.0399 193.457 87.9075 193.325 87.7751C193.193 87.6427 193.193 87.6427 193.06 87.5103C193.06 84.5977 193.59 82.0823 194.252 79.6992C194.384 79.0373 194.517 78.5077 194.649 77.8458C195.443 76.3895 196.238 74.8008 196.9 73.2121L197.164 72.8149V72.6825C197.429 71.8882 197.826 70.9614 198.223 70.0347V69.9023C198.488 69.2404 199.018 67.7841 198.488 67.1221ZM190.412 81.5527L190.148 81.8175C189.088 83.4062 187.897 85.1273 186.176 86.1864C186.044 84.5977 186.705 83.1414 187.367 81.9499C188.162 80.3612 189.089 79.3021 190.015 78.7725C190.28 79.1697 190.28 79.964 190.28 80.7584C190.412 81.0231 190.412 81.2879 190.412 81.5527ZM154.799 75.7275C155.594 76.7866 153.873 82.7442 153.873 82.7442C153.078 85.1273 151.887 88.1722 150.298 88.8342C149.768 89.099 149.106 88.9666 148.577 88.5694C147.253 86.9807 147.253 84.2005 147.253 81.2879C146.326 82.3471 145.532 83.5386 144.605 84.7301C142.884 87.2455 141.428 89.3638 139.839 89.3638C139.839 89.3638 139.839 89.3638 139.707 89.3638C139.574 89.3638 139.045 89.099 138.912 88.3046C138.912 87.2455 139.045 84.9949 142.355 77.9782C142.487 77.8458 142.487 77.581 142.619 77.3162C143.016 76.2571 143.546 75.0656 144.34 74.9332C144.605 74.9332 144.87 74.9332 145.135 75.1979C145.267 75.3303 145.4 75.4627 145.4 75.7275C145.4 76.2571 145.135 76.6542 144.87 77.0514C144.605 77.3162 144.473 77.7134 144.34 77.9782C144.34 78.1105 144.34 78.1105 144.34 78.2429C144.473 78.5077 144.473 78.9049 143.678 79.3021L143.546 79.5668C142.487 81.9499 141.428 84.3329 140.766 87.1131C141.957 85.7892 143.149 84.2005 144.208 82.6118C144.738 81.9499 145.267 81.1555 145.797 80.4936C145.929 80.3612 145.929 80.3612 146.061 80.2288C146.591 79.5668 147.121 78.7725 148.047 78.6401C148.577 78.6401 148.974 79.1697 149.106 80.0964C149.239 80.7584 149.239 81.6851 149.239 82.6118C149.239 84.4653 149.239 86.4512 149.901 87.3779C150.828 86.5836 151.357 85.2596 151.754 84.0681C151.887 83.671 152.019 83.2738 152.151 83.009L152.416 82.2147C152.813 80.7584 153.343 79.1697 153.608 77.581C153.343 77.4486 153.211 77.0514 153.343 76.7866C153.475 76.2571 153.873 75.8599 154.27 75.7275C154.402 75.3303 154.667 75.4627 154.799 75.7275ZM176.114 76.6542C175.452 76.2571 174.658 76.6542 174.261 76.7866C172.275 77.8458 170.819 80.2288 169.627 82.0823C169.495 82.347 169.362 82.4794 169.23 82.7442C169.362 82.2147 169.495 81.6851 169.627 81.2879C169.759 80.8908 169.892 80.3612 170.024 79.8316C170.024 79.5668 170.157 79.3021 170.289 79.0373C170.554 78.2429 170.951 77.3162 170.421 76.7866C170.024 76.2571 169.495 76.6542 169.097 76.919C168.965 77.0514 168.833 77.0514 168.7 77.1838C167.112 78.1105 164.993 78.6401 162.081 78.9049C161.684 77.8458 161.286 77.1838 160.624 76.919C159.83 76.6542 159.036 77.0514 158.241 78.1105C156.918 79.8316 155.461 82.8766 155.461 85.392C155.461 86.8483 156.123 87.7751 157.182 87.9075C158.109 87.9075 159.301 87.2455 160.227 86.054C161.286 84.7301 162.081 82.7442 162.346 80.626C164.861 80.3612 166.714 79.6992 168.568 79.1697C168.171 80.4936 167.774 81.8175 167.376 83.4062C167.376 83.5386 167.376 83.5386 167.244 83.671C166.979 84.7301 166.45 86.8483 166.979 87.7751C167.112 88.0399 167.376 88.1722 167.509 88.1722C167.641 88.1722 167.641 88.1722 167.774 88.1722C168.568 88.1722 168.965 87.2455 169.627 85.7892C170.024 84.8625 170.421 83.8034 171.216 82.6118C171.348 82.4794 171.481 82.2147 171.613 82.0823C172.672 80.4936 173.599 78.7725 175.585 77.9782C175.717 78.1105 175.849 78.3753 175.982 78.5077C176.114 78.7725 176.247 79.1697 176.776 79.1697C177.173 79.1697 177.306 78.9049 177.438 78.7725C177.438 78.1105 176.644 76.7866 176.114 76.6542ZM160.624 80.7584C160.095 83.671 159.036 85.392 157.315 86.1864C157.05 84.0681 157.844 82.347 158.639 80.7584C158.771 80.4936 158.903 80.2288 159.036 80.0964C159.565 80.4936 160.095 80.626 160.624 80.7584ZM128.718 77.8458C127.13 77.9782 126.203 78.9049 125.144 79.6992C124.879 79.964 124.614 80.2288 124.349 80.3612C124.349 80.2288 124.482 79.964 124.614 79.8316C124.879 79.1697 125.144 78.5077 124.879 78.1105C124.747 77.9782 124.614 77.7134 124.349 77.7134C124.217 77.581 123.952 77.581 123.82 77.7134C123.29 77.9782 123.025 78.7725 122.761 79.5668C122.628 79.8316 122.496 80.2288 122.496 80.3612C121.437 81.0231 120.378 81.8175 119.451 82.6118C119.319 82.7442 119.054 82.8766 118.921 83.009C118.789 83.1414 118.657 83.2738 118.524 83.4062C117.465 84.2005 116.538 84.9949 115.214 85.5244C115.214 83.9357 115.612 82.6118 115.876 81.4203C116.274 80.0964 116.538 79.1697 116.009 78.6401C115.744 78.5077 115.612 78.3753 115.347 78.3753C114.552 78.5077 113.891 79.6992 113.626 80.0964V80.2288C112.434 81.9499 111.11 83.9357 109.654 85.5244L109.522 85.6568C109.257 85.9216 109.124 86.1864 108.727 86.1864C108.86 83.9357 109.654 81.9499 110.316 80.2288C110.978 78.5077 111.507 77.1838 110.713 76.7866C110.184 76.5219 109.257 77.0514 108.065 77.7134C106.741 78.5077 105.153 79.4345 103.696 79.4345C103.299 78.6401 102.77 77.9782 101.843 77.8458C100.519 77.581 99.5923 78.6401 98.798 79.5668C98.5332 79.8316 98.2684 80.0964 98.136 80.2288C97.8712 80.4936 97.6065 80.626 97.3417 80.8907C96.6797 81.4203 95.8854 82.0823 95.2234 82.6118C94.2967 83.2738 93.2376 84.0681 92.3108 84.8625C91.3841 85.6568 90.4573 86.4512 89.5306 87.1131C89.663 86.8483 89.7954 86.716 89.7954 86.4512C91.5165 82.6118 93.3699 78.6401 91.9137 77.7134C91.2517 77.3162 90.1926 77.9782 88.8687 79.6992C88.3391 80.2288 87.8095 80.8908 87.4124 81.4203C85.8237 83.2738 84.235 85.1273 81.9843 86.3188C82.1167 84.5977 82.6463 83.1414 83.3083 81.8175C83.573 81.2879 83.7054 80.8908 83.9702 80.3612C84.6322 80.3612 84.6322 79.964 84.6322 79.5668C84.6322 79.4345 84.6322 79.3021 84.6322 79.0373C84.6322 78.9049 84.7645 78.7725 84.7645 78.6401C84.8969 78.3753 85.0293 78.2429 84.8969 77.9782C84.7645 77.581 84.4998 77.3162 83.9702 77.3162C83.7054 77.3162 83.4406 77.4486 83.3083 77.7134C83.1759 77.8458 80.1309 83.2738 80.1309 86.1864C80.1309 87.2455 80.6604 87.9075 81.4548 88.1722C82.6463 88.3046 83.4406 87.6427 84.1026 87.1131L84.235 86.9807C86.3532 85.392 88.2067 83.4062 89.9278 81.2879C89.663 81.9499 89.0011 84.0681 86.618 88.7018C86.2208 88.9666 85.9561 89.2314 85.5589 89.4962C82.6463 91.6144 79.6013 93.865 77.3507 96.7776C76.4239 97.9692 74.5705 100.882 76.0268 102.47C76.2915 102.868 76.6887 103 77.2183 103C77.3507 103 77.3507 103 77.4831 103C79.7337 102.735 83.1758 98.4987 87.5447 90.8201C90.325 88.437 93.5023 85.6568 96.6797 83.2738C96.4149 84.0681 95.8854 85.7892 96.4149 87.1131C96.6797 87.7751 97.0769 88.1723 97.7388 88.437C99.3275 88.5694 100.254 87.6427 101.049 86.9807C102.373 85.6568 103.432 83.5386 103.696 81.1555C105.418 80.8907 106.874 80.0964 108.065 79.4345C108.33 79.3021 108.595 79.1697 108.86 79.0373C108.727 79.3021 108.595 79.6992 108.463 80.0964C107.668 81.8175 106.741 84.0681 106.874 86.3188C106.874 86.8483 107.139 87.5103 107.536 87.9075C107.933 88.1722 108.33 88.1722 108.86 88.0399C110.184 87.7751 111.905 85.392 112.964 83.9357C113.229 83.671 113.361 83.4062 113.493 83.1414C113.229 84.4653 113.096 86.1864 113.891 86.9807C115.082 87.9075 116.274 86.9807 117.2 86.3188L117.333 86.1864C118.127 85.5244 118.921 84.8625 119.848 84.2005C120.51 83.5386 121.172 83.009 121.834 82.6118C121.569 83.671 121.304 84.4653 121.04 85.1273C120.51 86.4512 120.245 87.2455 121.04 87.6427C121.172 87.7751 121.304 87.7751 121.569 87.7751C122.099 87.7751 122.231 87.3779 122.496 86.8483C122.761 86.054 123.29 84.8625 124.879 82.8766C125.011 82.7442 125.144 82.6118 125.276 82.4794C125.806 81.9499 126.335 81.4203 126.997 80.8907C127.13 80.8907 127.13 80.7584 127.262 80.626C127.924 80.0964 128.718 79.3021 129.645 79.4345C129.777 79.4345 129.91 79.5668 130.042 79.6992C130.307 79.964 130.704 80.2288 131.101 79.8316C131.234 79.5668 131.234 79.3021 131.101 79.0373C130.572 78.2429 129.645 77.7134 128.718 77.8458ZM101.711 81.2879C101.446 83.1414 100.651 84.8625 99.4599 85.9216C98.9304 86.4512 98.4008 86.7159 97.8712 86.8483C97.3417 84.3329 99.5923 81.4203 100.254 80.4936C100.651 80.7584 101.049 81.1555 101.711 81.2879ZM84.6322 92.2764C80.9252 98.4987 78.5422 100.617 77.2183 101.279C77.4831 99.4255 78.9394 96.3805 84.6322 92.2764ZM71.7903 83.2738C71.5255 83.1414 70.9959 83.2738 70.7311 83.4062C68.7453 84.3329 66.627 85.1273 66.4946 85.2596C66.4946 85.2596 66.3622 85.2596 66.0975 85.392C61.9933 86.8483 59.6103 87.2455 59.2131 86.4512C58.816 85.7892 59.0807 84.7301 59.3455 84.2005C61.199 83.9357 62.7877 83.1414 63.9792 82.6118C66.627 81.1555 67.289 79.964 67.4214 79.1697C67.5537 78.6401 67.289 78.1105 66.8918 77.7134C66.3622 77.1838 65.7003 77.0514 64.9059 77.0514C63.582 77.1838 61.4638 77.9782 58.6836 81.6851C58.0216 81.6851 57.492 82.0823 57.3597 82.7442C57.3597 83.1414 57.492 83.2738 57.6244 83.5386C57.6244 83.671 57.7568 83.671 57.7568 83.8033C57.0949 84.9949 57.2273 87.2455 58.154 88.0399C58.816 88.5694 59.4779 88.8342 60.2723 88.8342C60.4046 88.8342 60.537 88.8342 60.6694 88.8342C61.9933 88.7018 63.3172 88.1723 64.7735 87.7751C65.0383 87.6427 65.1707 87.6427 65.4355 87.5103C68.7453 86.3188 69.9368 85.6568 70.5987 85.2596C70.7311 85.1273 70.8635 85.1273 70.9959 84.9949C71.1283 84.9949 71.1283 84.8625 71.2607 84.8625C71.6579 84.7301 72.1874 84.4653 72.1874 83.9357C72.055 83.4062 71.9226 83.2738 71.7903 83.2738ZM60.537 81.9499C61.3314 80.7584 63.0525 78.3753 65.0383 78.3753C65.4355 78.3753 65.7003 78.3753 65.8327 78.6401C65.5679 79.4345 64.9059 79.8316 64.244 80.2288C63.9792 80.3612 63.7144 80.626 63.4496 80.7584C62.6553 81.1555 61.7285 81.5527 60.537 81.9499ZM30.0871 86.3188C29.69 88.5694 29.2928 91.0848 29.69 93.0707C29.69 93.0707 29.69 93.0707 29.8224 93.0707C29.9548 92.9383 30.3519 92.8059 30.6167 93.2031C30.8815 93.4679 30.8815 93.7327 30.6167 94.1298C30.4843 94.527 29.9548 94.7918 29.4252 94.6594C27.4393 94.1298 27.7041 91.2172 27.8365 89.2314C28.3661 83.2738 29.9548 77.9782 31.4111 72.9473C31.5434 72.6825 31.5434 72.2854 31.6758 72.0206C29.2928 74.8008 26.9098 77.8458 24.6591 80.8907C22.938 83.1414 21.217 85.392 19.3635 87.6427C19.2311 87.7751 19.0987 88.0399 18.9663 88.1722C18.4368 88.8342 17.7748 89.6285 17.2452 90.1581C16.4509 90.8201 15.127 92.144 13.9355 91.7468C13.5383 91.6144 13.2735 91.3496 13.1411 91.0848C11.9496 88.9666 13.5383 83.1414 14.465 79.964C14.5974 79.5668 14.7298 79.1697 14.7298 78.9049C15.2594 76.6542 16.0537 74.4036 16.7157 72.2853C16.9805 71.2262 17.3776 70.1671 17.6424 69.108C17.3776 69.3728 17.2452 69.6375 16.9805 70.0347C16.8481 70.1671 16.8481 70.2995 16.7157 70.4319C12.082 76.7866 7.7131 83.671 3.60899 91.482C3.4766 91.8792 3.21182 92.2764 3.07943 92.6735C2.94704 92.9383 2.94704 93.0707 2.81465 93.3355C2.68225 93.6003 2.54986 93.7327 2.41747 93.9974C2.15269 94.3946 2.0203 94.7918 1.88791 95.0566C1.88791 95.189 1.88791 95.3213 1.88791 95.4537C1.88791 95.5861 1.88791 95.8509 1.75552 95.9833C1.62313 96.3805 1.22596 96.6453 0.828784 96.6453C0.431611 96.6453 0.16683 96.5129 0.0344388 96.1157C-0.097952 95.3213 0.16683 94.6594 0.564002 94.1298C0.564002 93.9974 0.696393 93.8651 0.696393 93.7327C2.81465 88.9666 5.59485 84.4653 8.24267 80.0964V79.964C11.2877 74.9332 14.0679 70.8291 16.9805 67.3869C17.51 66.8573 18.0396 66.1954 18.5692 65.9306C18.7015 65.7982 19.0987 65.7982 19.3635 65.9306C19.6283 66.063 19.7607 66.1954 19.8931 66.5925C20.1578 67.3869 19.8931 68.1812 19.7607 68.8432C19.7607 68.9756 19.6283 69.108 19.6283 69.2404C19.0987 71.0938 18.5692 72.9473 18.0396 74.8008C17.1129 77.7134 16.3185 80.626 15.5242 83.8033C15.5242 84.0681 15.3918 84.3329 15.3918 84.5977C14.9946 86.3188 14.465 88.1722 14.7298 90.1581C15.5242 89.8933 16.0537 89.2314 16.7157 88.5694C16.9805 88.3046 17.1129 88.1722 17.3776 87.9075L17.6424 87.6427C18.3044 86.8483 19.0987 86.054 19.7607 85.2596C21.8789 82.7442 23.9972 80.0964 26.1154 77.4486C27.0422 76.3895 27.9689 75.1979 28.7632 74.0064C29.028 73.7417 29.1604 73.4769 29.4252 73.2121C29.9548 72.5501 30.4843 71.8882 31.0139 71.0938C31.2787 70.8291 31.5434 70.4319 31.9406 70.0347C32.073 69.9023 32.073 69.7699 32.2054 69.6375L32.3378 69.5051C32.735 69.108 33.1321 68.5784 33.6617 68.5784C33.9265 68.5784 34.1913 68.7108 34.3237 68.8432C34.7208 69.5051 34.456 70.8291 34.3237 71.3586L33.9265 72.5501C32.3378 76.919 31.0139 81.4203 30.0871 86.3188ZM59.6103 75.3303C59.6103 75.1979 59.4779 75.0656 59.3455 74.9332C59.0807 74.8008 58.816 74.8008 58.5512 74.9332C57.492 75.4627 54.1823 79.3021 52.3288 81.4203C51.5345 82.2147 50.7401 83.2738 49.9458 84.2005C48.8866 85.5244 47.6951 86.9807 46.3712 88.0399C46.636 85.7892 47.298 83.8033 48.0923 81.8175C48.3571 81.1555 48.6219 80.3612 48.8866 79.5668C48.8866 79.4345 48.8866 79.4345 49.019 79.3021C49.2838 78.6401 49.5486 77.7134 49.2838 76.919C49.1514 76.6542 49.019 76.5219 48.7543 76.3895C48.2247 76.1247 47.298 76.5219 47.0332 76.6542H46.9008C45.0473 77.4486 43.1938 78.2429 40.9432 78.7725C40.6784 78.5077 40.4136 78.2429 40.1488 77.9782C40.1488 77.3162 39.8841 77.0514 39.6193 76.919C38.8249 76.6542 37.6334 77.0514 37.2363 77.581C36.4419 78.5077 35.5152 79.6992 34.8532 81.1555C34.3237 82.2147 33.1321 85.1273 33.9265 86.8483C34.1913 87.5103 34.5884 87.9075 35.2504 88.0399C36.1771 88.3046 37.3686 87.7751 38.5602 86.8483C40.1488 85.392 41.7375 82.7442 41.4728 80.0964C42.9291 79.8316 44.253 79.3021 45.5769 78.7725C46.2388 78.5077 46.9008 78.2429 47.5627 77.9782C47.298 78.6401 47.0332 79.4345 46.7684 80.2288C46.5036 81.0231 46.2388 81.9499 45.8417 82.8766C45.7093 83.1414 45.5769 83.5386 45.5769 83.8033C45.0473 85.2596 44.5177 86.8483 44.6501 88.437C44.6501 89.099 45.0473 89.6285 45.4445 89.8933C45.7093 90.0257 45.8417 90.0257 46.1064 90.0257C47.0332 90.0257 47.9599 89.2314 48.3571 88.8342C49.019 88.3046 50.2105 86.8483 51.6668 84.9949C52.9908 83.2738 54.7118 81.2879 56.5653 79.3021C57.7568 77.8458 58.5512 77.0514 59.0807 76.6542C59.4779 75.8599 59.6103 75.7275 59.6103 75.3303ZM35.78 86.3188C35.6476 86.3188 35.6476 86.1864 35.6476 86.054C35.2504 83.8033 36.8391 81.2879 37.501 80.0964C37.6334 79.8316 37.7658 79.6992 37.7658 79.6992C38.2954 80.2288 39.0897 80.2288 39.8841 80.2288C39.8841 81.8175 39.0897 83.009 38.4278 83.9357C37.501 85.5244 36.1771 86.4512 35.78 86.3188Z" fill="white"/>
<path d="M112.169 1.85347C108.595 0.661954 104.094 0 99.3275 0C94.5614 0 90.0601 0.661954 86.4856 1.85347C76.9535 4.89846 70.4663 11.2532 70.4663 18.5347C70.4663 28.8612 83.4406 37.2018 99.3275 37.2018C115.347 37.2018 128.189 28.8612 128.189 18.5347C128.189 11.2532 121.702 4.89846 112.169 1.85347ZM99.3275 29.2584C96.9445 29.2584 94.9586 24.6247 94.8262 18.6671C96.2825 18.7995 97.7388 18.9319 99.3275 18.9319C100.784 18.9319 102.372 18.7995 103.829 18.6671C103.696 24.4923 101.711 29.2584 99.3275 29.2584ZM95.2234 14.0334C95.8853 9.92931 97.474 7.01671 99.3275 7.01671C101.181 7.01671 102.77 9.92931 103.432 14.0334C102.108 14.1658 100.784 14.1658 99.3275 14.1658C97.8712 14.2982 96.5473 14.1658 95.2234 14.0334ZM105.947 13.7686C105.02 7.28149 102.372 2.64782 99.3275 2.64782C96.2825 2.64782 93.6347 7.28149 92.708 13.7686C86.8828 12.8419 82.7787 10.7237 82.7787 8.34062C82.7787 5.03085 90.1925 2.38303 99.4599 2.38303C108.595 2.38303 116.141 5.03085 116.141 8.34062C116.009 10.7237 111.905 12.8419 105.947 13.7686ZM74.5704 17.8728C74.5704 14.6954 75.7619 11.7828 77.8802 9.13496C77.8802 9.26735 77.8802 9.53214 77.8802 9.66453C77.8802 13.6363 83.8378 17.0784 92.1784 18.2699C92.1784 18.5347 92.1784 18.9319 92.1784 19.1967C92.1784 26.6105 94.2967 32.8329 97.0769 35.0836C84.4997 34.2892 74.5704 26.8753 74.5704 17.8728ZM101.446 35.0836C104.226 32.9653 106.344 26.6105 106.344 19.1967C106.344 18.9319 106.344 18.5347 106.344 18.2699C114.685 17.0784 120.642 13.6363 120.642 9.66453C120.642 9.53214 120.642 9.26735 120.642 9.13496C122.761 11.6504 123.952 14.6954 123.952 17.8728C123.952 26.8753 114.155 34.2892 101.446 35.0836Z" fill="white"/>
<path d="M71.3931 42.8947H60.1398V45.4101H64.3763V56.0013H67.2889V45.4101H71.3931V42.8947Z" fill="white"/>
<path d="M78.9394 42.4974C75.1 42.4974 72.0551 45.5424 72.0551 49.3818C72.0551 53.2211 75.1 56.2661 78.9394 56.2661C82.7787 56.2661 85.8237 53.2211 85.8237 49.3818C85.9561 45.6748 82.7787 42.4974 78.9394 42.4974ZM82.3815 51.5C81.9844 52.6915 80.9252 53.4859 79.7337 53.7507C79.4689 53.7507 79.3365 53.7507 79.0718 53.7507C78.807 53.7507 78.6746 53.7507 78.4098 53.7507C77.2183 53.4859 76.1592 52.6915 75.762 51.5C75.4972 50.8381 75.3648 50.1761 75.3648 49.3818C75.3648 48.5874 75.4972 47.9255 75.762 47.2635C76.1592 46.072 77.2183 45.2776 78.4098 45.0129C78.6746 45.0129 78.807 45.0129 79.0718 45.0129C79.3365 45.0129 79.4689 45.0129 79.7337 45.0129C80.9252 45.2776 81.9844 46.072 82.3815 47.2635C82.6463 47.9255 82.7787 48.5874 82.7787 49.3818C82.7787 50.1761 82.6463 50.8381 82.3815 51.5Z" fill="white"/>
<path d="M85.9561 42.8947H89.3983L92.5757 48.5875L95.8854 42.8947H99.3276L94.1643 51.1029V56.0013H91.1194V51.1029L85.9561 42.8947Z" fill="white"/>
<path d="M99.3276 49.3818C99.3276 45.5424 102.373 42.4974 106.212 42.4974C110.051 42.4974 113.096 45.5424 113.096 49.3818C113.096 53.2211 110.051 56.2661 106.212 56.2661C102.505 56.3985 99.3276 53.2211 99.3276 49.3818ZM106.344 53.7507C106.609 53.7507 106.741 53.7507 107.006 53.7507C108.198 53.4859 109.257 52.6915 109.654 51.5C109.919 50.8381 110.051 50.1761 110.051 49.3818C110.051 48.5874 109.919 47.9255 109.654 47.2635C109.257 46.072 108.198 45.2776 107.006 45.0129C106.741 45.0129 106.609 45.0129 106.344 45.0129C106.08 45.0129 105.947 45.0129 105.682 45.0129C104.491 45.2776 103.432 46.072 103.035 47.2635C102.77 47.9255 102.637 48.5874 102.637 49.3818C102.637 50.1761 102.77 50.8381 103.035 51.5C103.432 52.6915 104.491 53.4859 105.682 53.7507C105.815 53.7507 106.08 53.7507 106.344 53.7507Z" fill="white"/>
<path d="M134.146 53.0887H128.586L127.527 56.0013H124.217L129.513 42.8947H133.22L138.515 56.0013H135.205L134.146 53.0887ZM133.22 50.8381L131.234 45.6749L129.248 50.8381H133.22Z" fill="white"/>
<path d="M125.011 42.8947H113.891V45.4101H117.995V56.0013H120.907V45.4101H125.011V42.8947Z" fill="white"/>
</svg>
