<svg width="24" height="24" viewBox="0 0 24 24" fill="none" xmlns="http://www.w3.org/2000/svg">
<g clip-path="url(#clip0_75_88)">
<path d="M12 0C9.62663 0 7.30655 0.703788 5.33316 2.02236C3.35977 3.34094 1.8217 5.21509 0.913451 7.4078C0.00519943 9.60051 -0.232441 12.0133 0.230582 14.3411C0.693605 16.6689 1.83649 18.8071 3.51472 20.4853C5.19295 22.1635 7.33115 23.3064 9.65892 23.7694C11.9867 24.2324 14.3995 23.9948 16.5922 23.0866C18.7849 22.1783 20.6591 20.6402 21.9776 18.6668C23.2962 16.6935 24 14.3734 24 12C24 8.8174 22.7357 5.76515 20.4853 3.51472C18.2348 1.26428 15.1826 0 12 0V0ZM12 3C14.0383 3.00135 16.0158 3.69458 17.6089 4.96624C19.2019 6.23789 20.316 8.01263 20.769 10H3.23101C3.68397 8.01263 4.79814 6.23789 6.39115 4.96624C7.98417 3.69458 9.96167 3.00135 12 3ZM3.23101 14H6.00001C7.06087 14 8.07829 14.4214 8.82843 15.1716C9.57858 15.9217 10 16.9391 10 18V20.769C8.34919 20.3918 6.83829 19.5565 5.6409 18.3591C4.44351 17.1617 3.60822 15.6508 3.23101 14ZM14 20.769V18C14 16.9391 14.4214 15.9217 15.1716 15.1716C15.9217 14.4214 16.9391 14 18 14H20.769C20.3918 15.6508 19.5565 17.1617 18.3591 18.3591C17.1617 19.5565 15.6508 20.3918 14 20.769Z" fill="white"/>
</g>
<defs>
<clipPath id="clip0_75_88">
<rect width="24" height="24" fill="white"/>
</clipPath>
</defs>
</svg>
